<svg xmlns="http://www.w3.org/2000/svg" style="display: none;">
  <defs>
    <!-- Web Development Icon -->
    <symbol id="icon-code" viewBox="0 0 24 24">
      <path stroke="currentColor" stroke-width="2" stroke-linecap="round" stroke-linejoin="round" d="m18 16 4-4-4-4M6 8l-4 4 4 4"/>
    </symbol>
    
    <!-- Digital Marketing Icon -->
    <symbol id="icon-trending" viewBox="0 0 24 24">
      <path stroke="currentColor" stroke-width="2" stroke-linecap="round" stroke-linejoin="round" d="M22 12h-4l-3 9L9 3l-3 9H2"/>
    </symbol>
    
    <!-- Graphic Design Icon -->
    <symbol id="icon-palette" viewBox="0 0 24 24">
      <path stroke="currentColor" stroke-width="2" stroke-linecap="round" stroke-linejoin="round" d="M12 2C6.5 2 2 6.5 2 12s4.5 10 10 10c.926 0 1.648-.746 1.648-1.688 0-.437-.18-.835-.437-1.125-.29-.289-.438-.652-.438-1.125a1.64 1.64 0 0 1 1.668-1.668h1.996c3.051 0 5.555-2.503 5.555-5.554C21.965 6.012 17.461 2 12 2z"/>
      <path stroke="currentColor" stroke-width="2" stroke-linecap="round" stroke-linejoin="round" d="M6.5 10.5h.01M10.5 7.5h.01M14.5 7.5h.01M18.5 10.5h.01"/>
    </symbol>
    
    <!-- Phone Icon -->
    <symbol id="icon-phone" viewBox="0 0 24 24">
      <path stroke="currentColor" stroke-width="2" stroke-linecap="round" stroke-linejoin="round" d="M22 16.92v3a2 2 0 0 1-2.18 2 19.79 19.79 0 0 1-8.63-3.07 19.5 19.5 0 0 1-6-6 19.79 19.79 0 0 1-3.07-8.67A2 2 0 0 1 4.11 2h3a2 2 0 0 1 2 1.72 12.84 12.84 0 0 0 .7 2.81 2 2 0 0 1-.45 2.11L8.09 9.91a16 16 0 0 0 6 6l1.27-1.27a2 2 0 0 1 2.11-.45 12.84 12.84 0 0 0 2.81.7A2 2 0 0 1 22 16.92z"/>
    </symbol>
    
    <!-- Email Icon -->
    <symbol id="icon-mail" viewBox="0 0 24 24">
      <path stroke="currentColor" stroke-width="2" stroke-linecap="round" stroke-linejoin="round" d="M4 4h16c1.1 0 2 .9 2 2v12c0 1.1-.9 2-2 2H4c-1.1 0-2-.9-2-2V6c0-1.1.9-2 2-2z"/>
      <polyline stroke="currentColor" stroke-width="2" stroke-linecap="round" stroke-linejoin="round" points="22,6 12,13 2,6"/>
    </symbol>
    
    <!-- Location Icon -->
    <symbol id="icon-location" viewBox="0 0 24 24">
      <path stroke="currentColor" stroke-width="2" stroke-linecap="round" stroke-linejoin="round" d="M21 10c0 7-9 13-9 13s-9-6-9-13a9 9 0 0 1 18 0z"/>
      <circle cx="12" cy="10" r="3" stroke="currentColor" stroke-width="2"/>
    </symbol>
    
    <!-- Menu Icon -->
    <symbol id="icon-menu" viewBox="0 0 24 24">
      <line x1="3" y1="6" x2="21" y2="6" stroke="currentColor" stroke-width="2" stroke-linecap="round"/>
      <line x1="3" y1="12" x2="21" y2="12" stroke="currentColor" stroke-width="2" stroke-linecap="round"/>
      <line x1="3" y1="18" x2="21" y2="18" stroke="currentColor" stroke-width="2" stroke-linecap="round"/>
    </symbol>
    
    <!-- Close Icon -->
    <symbol id="icon-close" viewBox="0 0 24 24">
      <line x1="18" y1="6" x2="6" y2="18" stroke="currentColor" stroke-width="2" stroke-linecap="round"/>
      <line x1="6" y1="6" x2="18" y2="18" stroke="currentColor" stroke-width="2" stroke-linecap="round"/>
    </symbol>
    
    <!-- Arrow Right Icon -->
    <symbol id="icon-arrow-right" viewBox="0 0 24 24">
      <line x1="5" y1="12" x2="19" y2="12" stroke="currentColor" stroke-width="2" stroke-linecap="round"/>
      <polyline points="12,5 19,12 12,19" stroke="currentColor" stroke-width="2" stroke-linecap="round" stroke-linejoin="round"/>
    </symbol>
  </defs>
</svg>