<svg width="180" height="40" viewBox="0 0 180 40" fill="none" xmlns="http://www.w3.org/2000/svg">
  <defs>
    <linearGradient id="logoGradient" x1="0%" y1="0%" x2="100%" y2="0%">
      <stop offset="0%" style="stop-color:#10DCDF;stop-opacity:1" />
      <stop offset="100%" style="stop-color:#0392FC;stop-opacity:1" />
    </linearGradient>
  </defs>
  
  <!-- Icon -->
  <rect x="2" y="8" width="24" height="24" rx="4" fill="url(#logoGradient)"/>
  <rect x="6" y="12" width="4" height="4" rx="1" fill="white"/>
  <rect x="12" y="12" width="4" height="4" rx="1" fill="white"/>
  <rect x="18" y="12" width="4" height="4" rx="1" fill="white"/>
  <rect x="6" y="18" width="4" height="4" rx="1" fill="white"/>
  <rect x="12" y="18" width="4" height="4" rx="1" fill="white"/>
  <rect x="18" y="18" width="4" height="4" rx="1" fill="white"/>
  <rect x="6" y="24" width="4" height="4" rx="1" fill="white"/>
  <rect x="12" y="24" width="4" height="4" rx="1" fill="white"/>
  <rect x="18" y="24" width="4" height="4" rx="1" fill="white"/>
  
  <!-- Text -->
  <text x="34" y="16" font-family="Montserrat, sans-serif" font-weight="700" font-size="12" fill="#111827">NEXA TECH</text>
  <text x="34" y="28" font-family="Inter, sans-serif" font-weight="500" font-size="8" fill="#6B7280">IT SOLUTIONS</text>
</svg>